# xmcd
#
# Track frame offsets: 
#        225
#        15334
#        37425
#        51859
#        68376
#        92099
#        108203
#        123318
#        138021
#        152307
#        167665
#        184742
#        201666
#        220753
#
# Disc length: 3272 seconds
#
# Revision: 0
# Processed by: cddbd v1.5PL3 Copyright (c) Steve Scherf et al.
# Submitted via: ExactAudioCopy v0.95a3
#
DISCID=b70cc50e
DTITLE=Honky Tonk Heroes - Eyes Of Texas
DYEAR=1996
DGENRE=Country
TTITLE0=Eyes Of Texas
TTITLE1=Manana Can Wait
TTITLE2=Boogie At The Rattlesnake Inn
TTITLE3=Ridin' High On The Wind
TTITLE4=City Life-Country Home
TTITLE5=On A Real Lucky Night
TTITLE6=Cowboys Dream
TTITLE7=Talk To Me
TTITLE8=Southern States Of Dixie
TTITLE9=I Can't Dace
TTITLE10=Gonna Loose Again
TTITLE11=Play That Country Music
TTITLE12=Where The Lovers Go
TTITLE13=Don't You Say Goodbye
EXTD=
EXTT0=
EXTT1=
EXTT2=
EXTT3=
EXTT4=
EXTT5=
EXTT6=
EXTT7=
EXTT8=
EXTT9=
EXTT10=
EXTT11=
EXTT12=
EXTT13=
PLAYORDER=
